<?xml version="1.0" encoding="UTF-8" standalone="no"?>
<svg
   xmlns:dc="http://purl.org/dc/elements/1.1/"
   xmlns:cc="http://creativecommons.org/ns#"
   xmlns:rdf="http://www.w3.org/1999/02/22-rdf-syntax-ns#"
   xmlns:svg="http://www.w3.org/2000/svg"
   xmlns="http://www.w3.org/2000/svg"
   xmlns:sodipodi="http://sodipodi.sourceforge.net/DTD/sodipodi-0.dtd"
   xmlns:inkscape="http://www.inkscape.org/namespaces/inkscape"
   id="SVG_Pops"
   data-name="SVG Pops"
   viewBox="0 0 116 150"
   version="1.1"
   inkscape:version="0.91 r13725"
   sodipodi:docname="horns.svg">
  <metadata
     id="metadata19">
    <rdf:RDF>
      <cc:Work
         rdf:about="">
        <dc:format>image/svg+xml</dc:format>
        <dc:type
           rdf:resource="http://purl.org/dc/dcmitype/StillImage" />
        <dc:title>02</dc:title>
      </cc:Work>
    </rdf:RDF>
  </metadata>
  <sodipodi:namedview
     pagecolor="#ffffff"
     bordercolor="#666666"
     borderopacity="1"
     objecttolerance="10"
     gridtolerance="10"
     guidetolerance="10"
     inkscape:pageopacity="0"
     inkscape:pageshadow="2"
     inkscape:window-width="640"
     inkscape:window-height="480"
     id="namedview17"
     showgrid="false"
     inkscape:zoom="1.5733333"
     inkscape:cx="58"
     inkscape:cy="75"
     inkscape:window-x="4"
     inkscape:window-y="23"
     inkscape:window-maximized="0"
     inkscape:current-layer="SVG_Pops" />
  <defs
     id="defs3">
    <style
       id="style5">.cls-1{fill:#00ff85;}.cls-2{fill:#fff;}.cls-3{fill:#221f1f;}</style>
  </defs>
  <title
     id="title7">02</title>
  <g
     id="Pop2">
    <path
       class="cls-2"
       d="M97.28,43.08C94.22,37.47,89,34.2,83.39,32.31c-0.9-6.75-3.14-11.52-5.76-11.52-2.32,0-4.34,3.75-5.4,9.29a76.34,76.34,0,0,0-10.55-.14,52.65,52.65,0,0,0-7,.8c-1.07-5.39-3.07-9-5.35-9-2.73,0-5,5.17-5.87,12.35l-0.91.39a30.17,30.17,0,0,0-7.35,4.13c-15.65,12-13.46,35.56-10.65,65.71,0.5,5.35,1.28,11.41,5.79,14.24s12.17,2,16.12-2.15c5.14-5.33.51-12.35,6-22.67a31,31,0,0,1,6.65-8.28C73.24,72,88.33,78.31,96.32,68.14,101.8,61.17,101.09,50.06,97.28,43.08Z"
       id="path11" />
    <circle
       class="cls-3"
       cx="59.34"
       cy="40.17"
       r="1.55"
       id="circle13" />
    <circle
       class="cls-3"
       cx="66.4"
       cy="40.17"
       r="1.55"
       id="circle15" />
  </g>
</svg>
