<?xml version="1.0" encoding="UTF-8" standalone="no"?>
<svg
   xmlns:dc="http://purl.org/dc/elements/1.1/"
   xmlns:cc="http://creativecommons.org/ns#"
   xmlns:rdf="http://www.w3.org/1999/02/22-rdf-syntax-ns#"
   xmlns:svg="http://www.w3.org/2000/svg"
   xmlns="http://www.w3.org/2000/svg"
   viewBox="0 0 571.39099 96.393875"
   height="96.393875"
   width="571.39099"
   xml:space="preserve"
   version="1.1"
   id="svg3355"><metadata
     id="metadata3361"><rdf:RDF><cc:Work
         rdf:about=""><dc:format>image/svg+xml</dc:format><dc:type
           rdf:resource="http://purl.org/dc/dcmitype/StillImage" /><dc:title></dc:title></cc:Work></rdf:RDF></metadata><defs
     id="defs3359"><clipPath
       id="clipPath3369"
       clipPathUnits="userSpaceOnUse"><path
         id="path3371"
         d="M 0,612 792,612 792,0 0,0 0,612 Z" /></clipPath></defs><g
     transform="matrix(1.25,0,0,-1.25,-216.8045,471.33037)"
     id="g3363"><g
       id="g3365"><g
         clip-path="url(#clipPath3369)"
         id="g3367"><g
           transform="translate(201.5396,366.0783)"
           id="g3373"><path
             id="path3375"
             style="fill:#121212;fill-opacity:1;fill-rule:nonzero;stroke:none"
             d="m 0,0 -16.61,0 0,-25.332 16.61,0 c 8.102,0 13.416,4.671 13.416,12.654 C 13.416,-4.575 8.102,0 0,0 m 0.643,-35.555 -17.253,0 0,-29.931 -11.486,0 0,75.828 28.739,0 c 14.799,0 24.283,-9.794 24.283,-23.02 0,-13.202 -9.484,-22.877 -24.283,-22.877" /></g><g
           transform="translate(276.2476,362.1463)"
           id="g3377"><path
             id="path3379"
             style="fill:#121212;fill-opacity:1;fill-rule:nonzero;stroke:none"
             d="m 0,0 c -2.883,2.979 -6.696,4.695 -11.296,4.695 -4.575,0 -8.412,-1.716 -11.271,-4.695 -3.742,-4.051 -4.48,-8.627 -4.48,-23.64 0,-15.013 0.738,-19.493 4.48,-23.544 2.859,-2.979 6.696,-4.79 11.271,-4.79 4.6,0 8.413,1.811 11.296,4.79 3.837,3.956 4.48,8.531 4.48,23.544 C 4.48,-8.627 3.837,-3.932 0,0 m 8.317,-54.524 c -4.909,-4.909 -11.296,-7.673 -19.613,-7.673 -8.293,0 -14.679,2.764 -19.588,7.673 -7.459,7.459 -7.673,15.013 -7.673,30.884 0,15.871 0.214,23.426 7.673,30.884 4.909,4.886 11.295,7.674 19.588,7.674 8.317,0 14.704,-2.788 19.613,-7.674 7.435,-7.458 7.649,-15.013 7.649,-30.884 0,-15.871 -0.214,-23.425 -7.649,-30.884" /></g><g
           transform="translate(337.4437,366.0783)"
           id="g3381"><path
             id="path3383"
             style="fill:#121212;fill-opacity:1;fill-rule:nonzero;stroke:none"
             d="m 0,0 -16.61,0 0,-25.332 16.61,0 c 8.102,0 13.416,4.671 13.416,12.654 C 13.416,-4.575 8.102,0 0,0 m 0.643,-35.555 -17.253,0 0,-29.931 -11.486,0 0,75.828 28.739,0 c 14.799,0 24.284,-9.794 24.284,-23.02 0,-13.202 -9.485,-22.877 -24.284,-22.877" /></g><g
           transform="translate(400.8561,299.9492)"
           id="g3385"><path
             id="path3387"
             style="fill:#121212;fill-opacity:1;fill-rule:nonzero;stroke:none"
             d="m 0,0 c -8.293,0 -14.679,2.764 -19.589,7.673 -7.339,7.459 -7.673,15.013 -7.673,30.884 0,15.871 0.334,23.426 7.673,30.884 4.91,4.886 11.296,7.674 19.589,7.674 13.965,0 24.402,-8.317 27.047,-23.33 l -11.7,0 C 13.631,61.554 8.412,66.892 0,66.892 c -4.575,0 -8.412,-1.716 -11.176,-4.695 -3.837,-4.051 -4.576,-8.627 -4.576,-23.64 0,-15.013 0.739,-19.588 4.576,-23.639 2.764,-2.979 6.601,-4.695 11.176,-4.695 8.412,0 13.75,5.338 15.561,13.107 l 11.486,0 C 24.402,8.317 13.845,0 0,0" /></g><g
           transform="translate(478.0424,362.1463)"
           id="g3389"><path
             id="path3391"
             style="fill:#121212;fill-opacity:1;fill-rule:nonzero;stroke:none"
             d="m 0,0 c -2.883,2.979 -6.696,4.695 -11.296,4.695 -4.575,0 -8.412,-1.716 -11.271,-4.695 -3.742,-4.051 -4.48,-8.627 -4.48,-23.64 0,-15.013 0.738,-19.493 4.48,-23.544 2.859,-2.979 6.696,-4.79 11.271,-4.79 4.6,0 8.413,1.811 11.296,4.79 3.837,3.956 4.48,8.531 4.48,23.544 C 4.48,-8.627 3.837,-3.932 0,0 m 8.317,-54.524 c -4.909,-4.909 -11.296,-7.673 -19.613,-7.673 -8.293,0 -14.679,2.764 -19.588,7.673 -7.459,7.459 -7.673,15.013 -7.673,30.884 0,15.871 0.214,23.426 7.673,30.884 4.909,4.886 11.295,7.674 19.588,7.674 8.317,0 14.704,-2.788 19.613,-7.674 7.435,-7.458 7.649,-15.013 7.649,-30.884 0,-15.871 -0.214,-23.425 -7.649,-30.884" /></g><g
           transform="translate(549.438,360.9786)"
           id="g3393"><path
             id="path3395"
             style="fill:#121212;fill-opacity:1;fill-rule:nonzero;stroke:none"
             d="m 0,0 c -3.193,3.718 -7.554,5.219 -12.987,5.219 l -13.846,0 0,-55.382 13.846,0 c 5.433,0 9.794,1.502 12.987,5.219 3.741,4.147 4.051,11.176 4.051,22.472 C 4.051,-11.176 3.741,-4.146 0,0 m 9.794,-50.806 c -5.314,-6.601 -12.01,-9.58 -21.495,-9.58 l -26.618,0 0,75.828 26.618,0 c 9.485,0 16.181,-2.979 21.495,-9.58 5.553,-6.815 5.767,-16.204 5.767,-28.334 0,-12.153 -0.214,-21.519 -5.767,-28.334" /></g><g
           transform="translate(582.1094,300.5927)"
           id="g3397"><path
             id="path3399"
             style="fill:#121212;fill-opacity:1;fill-rule:nonzero;stroke:none"
             d="m 0,0 0,75.828 48.447,0 0,-10.342 -36.961,0 0,-22.139 31.528,0 0,-10.223 -31.528,0 0,-22.805 36.961,0 L 48.447,0 0,0 Z" /></g></g></g></g></svg>